<?xml version="1.0" standalone="no"?>
<!DOCTYPE svg PUBLIC "-//W3C//DTD SVG 20010904//EN"
 "http://www.w3.org/TR/2001/REC-SVG-20010904/DTD/svg10.dtd">
<svg version="1.0" xmlns="http://www.w3.org/2000/svg"
 width="512.000000pt" height="512.000000pt" viewBox="0 0 512.000000 512.000000"
 preserveAspectRatio="xMidYMid meet">

<g transform="translate(0.000000,512.000000) scale(0.100000,-0.100000)"
fill="#4aabce" stroke="none">
<path d="M2438 4470 c-166 -30 -312 -111 -425 -235 -75 -81 -118 -154 -156
-262 -29 -82 -31 -97 -32 -228 0 -119 3 -151 23 -215 33 -102 71 -175 134
-253 222 -276 593 -355 918 -195 70 34 102 58 181 137 78 79 103 111 137 181
53 108 72 181 79 300 25 411 -294 761 -706 775 -58 2 -127 0 -153 -5z"/>
<path d="M1955 2775 c-266 -60 -466 -223 -558 -455 -27 -70 -47 -162 -47 -221
l0 -38 58 -11 c91 -18 290 -75 398 -115 261 -97 543 -263 710 -417 l44 -41 44
41 c62 58 191 151 299 218 215 134 508 248 791 310 l79 17 -7 67 c-23 252
-191 483 -430 590 -144 65 -136 64 -756 67 -448 1 -577 -1 -625 -12z"/>
<path d="M795 2013 c3 -10 81 -198 173 -419 l166 -401 106 -6 c389 -23 804
-189 1174 -467 l106 -80 0 380 0 379 -62 56 c-242 216 -590 392 -959 485 -192
49 -491 90 -658 90 -46 0 -52 -2 -46 -17z"/>
<path d="M4085 2019 c-560 -49 -1104 -268 -1437 -578 l-48 -44 0 -379 0 -380
63 50 c363 288 820 475 1217 499 l106 6 167 404 c93 222 170 410 174 418 6 17
-72 18 -242 4z"/>
</g>
</svg>
